<mxfile host="app.diagrams.net" modified="2023-12-04T17:32:50.832Z" agent="Mozilla/5.0 (X11; Linux x86_64) AppleWebKit/537.36 (KHTML, like Gecko) Chrome/119.0.0.0 Safari/537.36" etag="cRatCnXZhPIVB0m4gh_Q" version="22.1.5" type="device">
  <diagram name="Page-1" id="0ctKB-28QicQiiIJbQ9k">
    <mxGraphModel dx="797" dy="384" grid="1" gridSize="10" guides="1" tooltips="1" connect="1" arrows="1" fold="1" page="1" pageScale="1" pageWidth="850" pageHeight="1100" math="0" shadow="0">
      <root>
        <mxCell id="0" />
        <mxCell id="1" parent="0" />
        <mxCell id="vOsi3BsoBRnRpKN-Dlqy-1" value="&amp;lt;&amp;lt;Abstract&amp;gt;&amp;gt;&lt;br&gt;Figura" style="swimlane;fontStyle=1;align=center;verticalAlign=top;childLayout=stackLayout;horizontal=1;startSize=40;horizontalStack=0;resizeParent=1;resizeParentMax=0;resizeLast=0;collapsible=1;marginBottom=0;whiteSpace=wrap;html=1;" vertex="1" parent="1">
          <mxGeometry x="470" y="220" width="160" height="130" as="geometry" />
        </mxCell>
        <mxCell id="vOsi3BsoBRnRpKN-Dlqy-2" value="- area: double" style="text;strokeColor=none;fillColor=none;align=left;verticalAlign=top;spacingLeft=4;spacingRight=4;overflow=hidden;rotatable=0;points=[[0,0.5],[1,0.5]];portConstraint=eastwest;whiteSpace=wrap;html=1;" vertex="1" parent="vOsi3BsoBRnRpKN-Dlqy-1">
          <mxGeometry y="40" width="160" height="26" as="geometry" />
        </mxCell>
        <mxCell id="vOsi3BsoBRnRpKN-Dlqy-3" value="" style="line;strokeWidth=1;fillColor=none;align=left;verticalAlign=middle;spacingTop=-1;spacingLeft=3;spacingRight=3;rotatable=0;labelPosition=right;points=[];portConstraint=eastwest;strokeColor=inherit;" vertex="1" parent="vOsi3BsoBRnRpKN-Dlqy-1">
          <mxGeometry y="66" width="160" height="8" as="geometry" />
        </mxCell>
        <mxCell id="vOsi3BsoBRnRpKN-Dlqy-4" value="+ Figura()&lt;br&gt;+ getters()&lt;br&gt;+ calcularArea()" style="text;strokeColor=none;fillColor=none;align=left;verticalAlign=top;spacingLeft=4;spacingRight=4;overflow=hidden;rotatable=0;points=[[0,0.5],[1,0.5]];portConstraint=eastwest;whiteSpace=wrap;html=1;" vertex="1" parent="vOsi3BsoBRnRpKN-Dlqy-1">
          <mxGeometry y="74" width="160" height="56" as="geometry" />
        </mxCell>
        <mxCell id="vOsi3BsoBRnRpKN-Dlqy-13" value="Tren" style="swimlane;fontStyle=1;align=center;verticalAlign=top;childLayout=stackLayout;horizontal=1;startSize=26;horizontalStack=0;resizeParent=1;resizeParentMax=0;resizeLast=0;collapsible=1;marginBottom=0;whiteSpace=wrap;html=1;" vertex="1" parent="1">
          <mxGeometry x="50" y="190" width="180" height="140" as="geometry" />
        </mxCell>
        <mxCell id="vOsi3BsoBRnRpKN-Dlqy-14" value="- areaTotal: double&lt;br&gt;- listaFiguras: List&amp;lt;Figura&amp;gt;" style="text;strokeColor=none;fillColor=none;align=left;verticalAlign=top;spacingLeft=4;spacingRight=4;overflow=hidden;rotatable=0;points=[[0,0.5],[1,0.5]];portConstraint=eastwest;whiteSpace=wrap;html=1;" vertex="1" parent="vOsi3BsoBRnRpKN-Dlqy-13">
          <mxGeometry y="26" width="180" height="44" as="geometry" />
        </mxCell>
        <mxCell id="vOsi3BsoBRnRpKN-Dlqy-15" value="" style="line;strokeWidth=1;fillColor=none;align=left;verticalAlign=middle;spacingTop=-1;spacingLeft=3;spacingRight=3;rotatable=0;labelPosition=right;points=[];portConstraint=eastwest;strokeColor=inherit;" vertex="1" parent="vOsi3BsoBRnRpKN-Dlqy-13">
          <mxGeometry y="70" width="180" height="8" as="geometry" />
        </mxCell>
        <mxCell id="vOsi3BsoBRnRpKN-Dlqy-16" value="+ Tren()&lt;br&gt;+ getters&lt;br&gt;+ calcularArea()" style="text;strokeColor=none;fillColor=none;align=left;verticalAlign=top;spacingLeft=4;spacingRight=4;overflow=hidden;rotatable=0;points=[[0,0.5],[1,0.5]];portConstraint=eastwest;whiteSpace=wrap;html=1;" vertex="1" parent="vOsi3BsoBRnRpKN-Dlqy-13">
          <mxGeometry y="78" width="180" height="62" as="geometry" />
        </mxCell>
        <mxCell id="vOsi3BsoBRnRpKN-Dlqy-29" style="edgeStyle=orthogonalEdgeStyle;rounded=0;orthogonalLoop=1;jettySize=auto;html=1;exitX=0.5;exitY=0;exitDx=0;exitDy=0;entryX=0.5;entryY=1;entryDx=0;entryDy=0;" edge="1" parent="1" source="vOsi3BsoBRnRpKN-Dlqy-17" target="vOsi3BsoBRnRpKN-Dlqy-1">
          <mxGeometry relative="1" as="geometry" />
        </mxCell>
        <mxCell id="vOsi3BsoBRnRpKN-Dlqy-17" value="Rectangulo" style="swimlane;fontStyle=1;align=center;verticalAlign=top;childLayout=stackLayout;horizontal=1;startSize=26;horizontalStack=0;resizeParent=1;resizeParentMax=0;resizeLast=0;collapsible=1;marginBottom=0;whiteSpace=wrap;html=1;" vertex="1" parent="1">
          <mxGeometry x="290" y="510" width="160" height="148" as="geometry" />
        </mxCell>
        <mxCell id="vOsi3BsoBRnRpKN-Dlqy-18" value="- area: double&lt;br&gt;- base: double&lt;br&gt;- altura: double" style="text;strokeColor=none;fillColor=none;align=left;verticalAlign=top;spacingLeft=4;spacingRight=4;overflow=hidden;rotatable=0;points=[[0,0.5],[1,0.5]];portConstraint=eastwest;whiteSpace=wrap;html=1;" vertex="1" parent="vOsi3BsoBRnRpKN-Dlqy-17">
          <mxGeometry y="26" width="160" height="54" as="geometry" />
        </mxCell>
        <mxCell id="vOsi3BsoBRnRpKN-Dlqy-19" value="" style="line;strokeWidth=1;fillColor=none;align=left;verticalAlign=middle;spacingTop=-1;spacingLeft=3;spacingRight=3;rotatable=0;labelPosition=right;points=[];portConstraint=eastwest;strokeColor=inherit;" vertex="1" parent="vOsi3BsoBRnRpKN-Dlqy-17">
          <mxGeometry y="80" width="160" height="8" as="geometry" />
        </mxCell>
        <mxCell id="vOsi3BsoBRnRpKN-Dlqy-20" value="+ Figura()&lt;br&gt;+ getters()&lt;br&gt;+ calcularArea()" style="text;strokeColor=none;fillColor=none;align=left;verticalAlign=top;spacingLeft=4;spacingRight=4;overflow=hidden;rotatable=0;points=[[0,0.5],[1,0.5]];portConstraint=eastwest;whiteSpace=wrap;html=1;" vertex="1" parent="vOsi3BsoBRnRpKN-Dlqy-17">
          <mxGeometry y="88" width="160" height="60" as="geometry" />
        </mxCell>
        <mxCell id="vOsi3BsoBRnRpKN-Dlqy-21" value="Circulo" style="swimlane;fontStyle=1;align=center;verticalAlign=top;childLayout=stackLayout;horizontal=1;startSize=26;horizontalStack=0;resizeParent=1;resizeParentMax=0;resizeLast=0;collapsible=1;marginBottom=0;whiteSpace=wrap;html=1;" vertex="1" parent="1">
          <mxGeometry x="470" y="510" width="160" height="138" as="geometry" />
        </mxCell>
        <mxCell id="vOsi3BsoBRnRpKN-Dlqy-22" value="- area: double&lt;br&gt;- radio: double" style="text;strokeColor=none;fillColor=none;align=left;verticalAlign=top;spacingLeft=4;spacingRight=4;overflow=hidden;rotatable=0;points=[[0,0.5],[1,0.5]];portConstraint=eastwest;whiteSpace=wrap;html=1;" vertex="1" parent="vOsi3BsoBRnRpKN-Dlqy-21">
          <mxGeometry y="26" width="160" height="44" as="geometry" />
        </mxCell>
        <mxCell id="vOsi3BsoBRnRpKN-Dlqy-23" value="" style="line;strokeWidth=1;fillColor=none;align=left;verticalAlign=middle;spacingTop=-1;spacingLeft=3;spacingRight=3;rotatable=0;labelPosition=right;points=[];portConstraint=eastwest;strokeColor=inherit;" vertex="1" parent="vOsi3BsoBRnRpKN-Dlqy-21">
          <mxGeometry y="70" width="160" height="8" as="geometry" />
        </mxCell>
        <mxCell id="vOsi3BsoBRnRpKN-Dlqy-24" value="+ Figura()&lt;br&gt;+ getters()&lt;br&gt;+ calcularArea()" style="text;strokeColor=none;fillColor=none;align=left;verticalAlign=top;spacingLeft=4;spacingRight=4;overflow=hidden;rotatable=0;points=[[0,0.5],[1,0.5]];portConstraint=eastwest;whiteSpace=wrap;html=1;" vertex="1" parent="vOsi3BsoBRnRpKN-Dlqy-21">
          <mxGeometry y="78" width="160" height="60" as="geometry" />
        </mxCell>
        <mxCell id="vOsi3BsoBRnRpKN-Dlqy-25" value="Triangulo" style="swimlane;fontStyle=1;align=center;verticalAlign=top;childLayout=stackLayout;horizontal=1;startSize=26;horizontalStack=0;resizeParent=1;resizeParentMax=0;resizeLast=0;collapsible=1;marginBottom=0;whiteSpace=wrap;html=1;" vertex="1" parent="1">
          <mxGeometry x="660" y="510" width="160" height="148" as="geometry" />
        </mxCell>
        <mxCell id="vOsi3BsoBRnRpKN-Dlqy-26" value="- area: double&lt;br&gt;- base: double&lt;br&gt;- altura: double" style="text;strokeColor=none;fillColor=none;align=left;verticalAlign=top;spacingLeft=4;spacingRight=4;overflow=hidden;rotatable=0;points=[[0,0.5],[1,0.5]];portConstraint=eastwest;whiteSpace=wrap;html=1;" vertex="1" parent="vOsi3BsoBRnRpKN-Dlqy-25">
          <mxGeometry y="26" width="160" height="54" as="geometry" />
        </mxCell>
        <mxCell id="vOsi3BsoBRnRpKN-Dlqy-27" value="" style="line;strokeWidth=1;fillColor=none;align=left;verticalAlign=middle;spacingTop=-1;spacingLeft=3;spacingRight=3;rotatable=0;labelPosition=right;points=[];portConstraint=eastwest;strokeColor=inherit;" vertex="1" parent="vOsi3BsoBRnRpKN-Dlqy-25">
          <mxGeometry y="80" width="160" height="8" as="geometry" />
        </mxCell>
        <mxCell id="vOsi3BsoBRnRpKN-Dlqy-28" value="+ Figura()&lt;br&gt;+ getters()&lt;br&gt;+ calcularArea()" style="text;strokeColor=none;fillColor=none;align=left;verticalAlign=top;spacingLeft=4;spacingRight=4;overflow=hidden;rotatable=0;points=[[0,0.5],[1,0.5]];portConstraint=eastwest;whiteSpace=wrap;html=1;" vertex="1" parent="vOsi3BsoBRnRpKN-Dlqy-25">
          <mxGeometry y="88" width="160" height="60" as="geometry" />
        </mxCell>
        <mxCell id="vOsi3BsoBRnRpKN-Dlqy-37" value="Figuracomposite" style="swimlane;fontStyle=1;align=center;verticalAlign=top;childLayout=stackLayout;horizontal=1;startSize=26;horizontalStack=0;resizeParent=1;resizeParentMax=0;resizeLast=0;collapsible=1;marginBottom=0;whiteSpace=wrap;html=1;" vertex="1" parent="1">
          <mxGeometry x="650" y="20" width="160" height="160" as="geometry" />
        </mxCell>
        <mxCell id="vOsi3BsoBRnRpKN-Dlqy-38" value="- nombre: String&lt;br&gt;- area: double&lt;br&gt;- listaFiguras: List&amp;lt;Figura&amp;gt;" style="text;strokeColor=none;fillColor=none;align=left;verticalAlign=top;spacingLeft=4;spacingRight=4;overflow=hidden;rotatable=0;points=[[0,0.5],[1,0.5]];portConstraint=eastwest;whiteSpace=wrap;html=1;" vertex="1" parent="vOsi3BsoBRnRpKN-Dlqy-37">
          <mxGeometry y="26" width="160" height="54" as="geometry" />
        </mxCell>
        <mxCell id="vOsi3BsoBRnRpKN-Dlqy-39" value="" style="line;strokeWidth=1;fillColor=none;align=left;verticalAlign=middle;spacingTop=-1;spacingLeft=3;spacingRight=3;rotatable=0;labelPosition=right;points=[];portConstraint=eastwest;strokeColor=inherit;" vertex="1" parent="vOsi3BsoBRnRpKN-Dlqy-37">
          <mxGeometry y="80" width="160" height="8" as="geometry" />
        </mxCell>
        <mxCell id="vOsi3BsoBRnRpKN-Dlqy-40" value="+ Figura()&lt;br&gt;+ getters()&lt;br&gt;+ calcularArea()&lt;br&gt;+ agregarFiguras(Figura)" style="text;strokeColor=none;fillColor=none;align=left;verticalAlign=top;spacingLeft=4;spacingRight=4;overflow=hidden;rotatable=0;points=[[0,0.5],[1,0.5]];portConstraint=eastwest;whiteSpace=wrap;html=1;" vertex="1" parent="vOsi3BsoBRnRpKN-Dlqy-37">
          <mxGeometry y="88" width="160" height="72" as="geometry" />
        </mxCell>
        <mxCell id="vOsi3BsoBRnRpKN-Dlqy-43" style="edgeStyle=orthogonalEdgeStyle;rounded=0;orthogonalLoop=1;jettySize=auto;html=1;exitX=0.5;exitY=0;exitDx=0;exitDy=0;entryX=0.488;entryY=1;entryDx=0;entryDy=0;entryPerimeter=0;" edge="1" parent="1" source="vOsi3BsoBRnRpKN-Dlqy-25" target="vOsi3BsoBRnRpKN-Dlqy-4">
          <mxGeometry relative="1" as="geometry" />
        </mxCell>
        <mxCell id="vOsi3BsoBRnRpKN-Dlqy-44" style="edgeStyle=orthogonalEdgeStyle;rounded=0;orthogonalLoop=1;jettySize=auto;html=1;exitX=0.5;exitY=0;exitDx=0;exitDy=0;entryX=0.5;entryY=1;entryDx=0;entryDy=0;entryPerimeter=0;" edge="1" parent="1" source="vOsi3BsoBRnRpKN-Dlqy-21" target="vOsi3BsoBRnRpKN-Dlqy-4">
          <mxGeometry relative="1" as="geometry" />
        </mxCell>
        <mxCell id="vOsi3BsoBRnRpKN-Dlqy-45" style="edgeStyle=orthogonalEdgeStyle;rounded=0;orthogonalLoop=1;jettySize=auto;html=1;entryX=0.5;entryY=0;entryDx=0;entryDy=0;" edge="1" parent="1" source="vOsi3BsoBRnRpKN-Dlqy-38" target="vOsi3BsoBRnRpKN-Dlqy-1">
          <mxGeometry relative="1" as="geometry" />
        </mxCell>
        <mxCell id="vOsi3BsoBRnRpKN-Dlqy-47" style="edgeStyle=orthogonalEdgeStyle;rounded=0;orthogonalLoop=1;jettySize=auto;html=1;entryX=0;entryY=0.177;entryDx=0;entryDy=0;entryPerimeter=0;" edge="1" parent="1" source="vOsi3BsoBRnRpKN-Dlqy-13" target="vOsi3BsoBRnRpKN-Dlqy-1">
          <mxGeometry relative="1" as="geometry" />
        </mxCell>
      </root>
    </mxGraphModel>
  </diagram>
</mxfile>
